<?xml version="1.0" encoding="utf-8"?>
<svg width="78.60547px" height="33px" viewBox="0 0 78.60547 33" version="1.1" xmlns:xlink="http://www.w3.org/1999/xlink" xmlns="http://www.w3.org/2000/svg">
  <g id="Mask-Difference" fill-opacity="1">
    <path d="M0 0L78.6055 0L78.6055 33L0 33L0 0Z" id="Mask-Difference" fill="none" fill-rule="evenodd" stroke="none" />
    <path d="M17.001 0L9.999 0Q9.75354 0 9.50837 0.0120442Q9.26321 0.0240885 9.01893 0.0481479Q8.77465 0.0722074 8.53184 0.108224Q8.28904 0.144241 8.04829 0.192128Q7.80755 0.240015 7.56944 0.299657Q7.33134 0.3593 7.09644 0.430553Q6.86155 0.501807 6.63044 0.584501Q6.39932 0.667194 6.17255 0.761128Q5.94577 0.855062 5.72388 0.960011Q5.50198 1.06496 5.2855 1.18067Q5.06903 1.29638 4.85849 1.42257Q4.64795 1.54876 4.44385 1.68514Q4.23976 1.82151 4.0426 1.96773Q3.84545 2.11395 3.6557 2.26967Q3.46596 2.42539 3.28408 2.59023Q3.10221 2.75507 2.92864 2.92864Q2.75507 3.10221 2.59023 3.28408Q2.42539 3.46596 2.26967 3.6557Q2.11395 3.84545 1.96773 4.0426Q1.82151 4.23976 1.68514 4.44385Q1.54876 4.64795 1.42257 4.85849Q1.29638 5.06903 1.18067 5.2855Q1.06496 5.50198 0.960011 5.72388Q0.855062 5.94577 0.761128 6.17255Q0.667194 6.39932 0.584501 6.63044Q0.501807 6.86155 0.430553 7.09644Q0.3593 7.33134 0.299657 7.56944Q0.240015 7.80755 0.192128 8.04829Q0.144241 8.28904 0.108224 8.53184Q0.0722074 8.77465 0.0481479 9.01893Q0.0240885 9.26321 0.0120442 9.50837Q0 9.75354 0 9.999L0 23.001Q0 23.2465 0.0120442 23.4916Q0.0240885 23.7368 0.0481479 23.9811Q0.0722074 24.2254 0.108224 24.4682Q0.144241 24.711 0.192128 24.9517Q0.240015 25.1924 0.299657 25.4306Q0.3593 25.6687 0.430553 25.9036Q0.501807 26.1384 0.584501 26.3696Q0.667194 26.6007 0.761128 26.8274Q0.855062 27.0542 0.960011 27.2761Q1.06496 27.498 1.18067 27.7145Q1.29638 27.931 1.42257 28.1415Q1.54876 28.3521 1.68514 28.5561Q1.82151 28.7602 1.96773 28.9574Q2.11395 29.1546 2.26967 29.3443Q2.42539 29.534 2.59023 29.7159Q2.75507 29.8978 2.92864 30.0714Q3.10221 30.2449 3.28408 30.4098Q3.46596 30.5746 3.6557 30.7303Q3.84545 30.886 4.0426 31.0323Q4.23976 31.1785 4.44385 31.3149Q4.64795 31.4512 4.85849 31.5774Q5.06903 31.7036 5.2855 31.8193Q5.50198 31.935 5.72388 32.04Q5.94577 32.1449 6.17255 32.2389Q6.39932 32.3328 6.63044 32.4155Q6.86155 32.4982 7.09644 32.5694Q7.33134 32.6407 7.56944 32.7003Q7.80755 32.76 8.04829 32.8079Q8.28904 32.8558 8.53184 32.8918Q8.77465 32.9278 9.01893 32.9519Q9.26321 32.9759 9.50837 32.988Q9.75354 33 9.999 33L17.001 33Q17.2941 33 17.5866 32.9828Q17.8792 32.9657 18.1702 32.9314Q18.4613 32.8971 18.7498 32.8459Q19.0384 32.7946 19.3234 32.7265Q19.6085 32.6585 19.889 32.5738Q20.1696 32.4892 20.4447 32.3883Q20.7199 32.2873 20.9886 32.1704Q21.2574 32.0536 21.5188 31.9212Q21.7803 31.7887 22.0335 31.6412Q22.2867 31.4938 22.5309 31.3317Q22.7751 31.1696 23.0093 30.9935Q23.2436 30.8174 23.4671 30.6279Q23.6907 30.4384 23.9027 30.2361Q24.1148 30.0338 24.3146 29.8194Q24.5145 29.6051 24.7014 29.3794Q24.8883 29.1537 25.0618 28.9174Q25.8022 29.667 27.04 29.667Q28.3535 29.667 29.0835 28.9077Q29.8135 28.1484 29.8135 26.791Q29.8135 25.9268 29.4741 25.2798Q29.1348 24.6328 28.5098 24.2861Q27.8848 23.9395 27.0693 23.9395Q27.012 23.9395 26.9557 23.9409Q27 23.472 27 23.001L27 14.1066Q27.316 13.8696 27.5273 13.5332L27.6846 13.5332L28.0195 14.4971L30.0361 14.4971L30.0361 6.75195L27.3633 6.75195L27.3633 10.1426Q27.3633 11.4346 27.0693 11.978Q27.0371 12.0377 27 12.0908L27 9.999Q27 9.75354 26.988 9.50837Q26.9759 9.26321 26.9519 9.01893Q26.9278 8.77465 26.8918 8.53184Q26.8558 8.28904 26.8079 8.04829Q26.76 7.80755 26.7003 7.56944Q26.6407 7.33134 26.5694 7.09644Q26.4982 6.86155 26.4155 6.63044Q26.3328 6.39932 26.2389 6.17255Q26.1449 5.94577 26.04 5.72388Q25.935 5.50198 25.8193 5.2855Q25.7036 5.06903 25.5774 4.85849Q25.4512 4.64795 25.3149 4.44385Q25.1785 4.23976 25.0323 4.0426Q24.886 3.84545 24.7303 3.6557Q24.5746 3.46596 24.4098 3.28408Q24.2449 3.10221 24.0714 2.92864Q23.8978 2.75507 23.7159 2.59023Q23.534 2.42539 23.3443 2.26967Q23.1546 2.11395 22.9574 1.96773Q22.7602 1.82151 22.5561 1.68514Q22.3521 1.54876 22.1415 1.42257Q21.931 1.29638 21.7145 1.18067Q21.498 1.06496 21.2761 0.960011Q21.0542 0.855062 20.8274 0.761128Q20.6007 0.667194 20.3696 0.584501Q20.1384 0.501807 19.9036 0.430553Q19.6687 0.3593 19.4306 0.299657Q19.1924 0.240015 18.9517 0.192128Q18.711 0.144241 18.4682 0.108224Q18.2254 0.0722074 17.9811 0.0481479Q17.7368 0.0240885 17.4916 0.0120442Q17.2465 0 17.001 0ZM27 12.0908Q26.6996 12.5215 26.085 12.5215Q25.5928 12.5215 25.3774 12.1318Q25.1621 11.7422 25.1621 10.9834L25.1621 6.75195L22.4893 6.75195L22.4893 11.7969Q22.4893 13.1504 23.2002 13.8921Q23.9111 14.6338 25.1895 14.6338Q25.9961 14.6338 26.5942 14.3501Q26.8151 14.2454 27 14.1066L27 12.0908ZM26.699 25.4359Q26.8842 24.6981 26.9557 23.9409Q25.7192 23.9721 25.021 24.689Q24.291 25.4385 24.291 26.791Q24.291 28.1143 25.0356 28.8906Q25.0486 28.9041 25.0618 28.9174Q25.7695 27.9532 26.2298 26.8492Q26.2373 27.5193 26.4199 27.8774Q26.6104 28.251 27.0596 28.251Q27.5039 28.251 27.687 27.8774Q27.8701 27.5039 27.8701 26.791Q27.8701 26.083 27.6846 25.7217Q27.499 25.3604 27.0498 25.3604Q26.8482 25.3604 26.699 25.4359ZM26.699 25.4359Q26.5172 26.1601 26.2298 26.8492Q26.2295 26.8204 26.2295 26.791Q26.2295 26.0781 26.4199 25.7192Q26.523 25.525 26.699 25.4359ZM20.6436 13.1128Q21.1152 12.3916 21.1152 11.4619Q21.1152 10.4502 20.6128 9.78369Q20.1104 9.11719 18.8184 8.53613Q17.4717 7.9209 17.1675 7.68848Q16.8633 7.45606 16.8633 7.16211Q16.8633 6.88867 17.1025 6.7041Q17.3418 6.51953 17.8682 6.51953Q18.8867 6.51953 20.2881 7.16211L21.1152 5.07715Q19.502 4.35938 17.9502 4.35938Q16.1934 4.35938 15.1885 5.13184Q14.1836 5.9043 14.1836 7.28516Q14.1836 8.02344 14.4194 8.56348Q14.6553 9.10352 15.144 9.52051Q15.6328 9.9375 16.6104 10.3818Q17.6904 10.8672 17.9399 11.0244Q18.1895 11.1816 18.3022 11.3354Q18.415 11.4893 18.415 11.6943Q18.415 12.0225 18.1348 12.231Q17.8545 12.4395 17.2529 12.4395Q16.5557 12.4395 15.7217 12.2173Q14.8877 11.9951 14.1152 11.5986L14.1152 14.0049Q14.8467 14.3535 15.5234 14.4937Q16.2002 14.6338 17.1982 14.6338Q18.3945 14.6338 19.2832 14.2339Q20.1719 13.834 20.6436 13.1128ZM37.2207 6.66992Q36.9063 6.61523 36.5576 6.61523Q35.9492 6.61523 35.3511 6.99463Q34.7529 7.37402 34.418 7.98926L34.2881 7.98926L33.8711 6.75195L31.8818 6.75195L31.8818 14.4971L34.5547 14.4971L34.5547 10.6895Q34.5547 9.9375 34.9512 9.5376Q35.3477 9.1377 36.2227 9.1377Q36.8037 9.1377 37.1318 9.21973L37.3711 6.69727L37.2207 6.66992ZM47.7378 13.605Q48.8076 14.6338 50.7422 14.6338Q51.6719 14.6338 52.3418 14.5107Q53.0117 14.3877 53.6406 14.0664L53.6406 12.1455Q52.9502 12.4668 52.3589 12.6001Q51.7676 12.7334 51.0635 12.7334Q50.291 12.7334 49.8433 12.3643Q49.3955 11.9951 49.3682 11.3457L54.1465 11.3457L54.1465 10.1563Q54.1465 8.44043 53.1929 7.52783Q52.2393 6.61523 50.4893 6.61523Q48.6504 6.61524 47.6592 7.66455Q46.668 8.71387 46.668 10.6758Q46.668 12.5762 47.7378 13.605ZM70.5698 13.5708Q71.5918 12.5078 71.5918 10.6074Q71.5918 9.39746 71.1167 8.4917Q70.6416 7.58594 69.7666 7.10059Q68.8916 6.61523 67.75 6.61523Q65.9043 6.61524 64.8823 7.66455Q63.8604 8.71387 63.8604 10.6074Q63.8604 12.46 64.9028 13.5469Q65.9453 14.6338 67.709 14.6338Q69.5479 14.6338 70.5698 13.5708ZM78.4551 6.66992Q78.1406 6.61523 77.792 6.61523Q77.1836 6.61523 76.5854 6.99463Q75.9873 7.37402 75.6523 7.98926L75.5225 7.98926L75.1055 6.75195L73.1162 6.75195L73.1162 14.4971L75.7891 14.4971L75.7891 10.6895Q75.7891 9.9375 76.1855 9.5376Q76.582 9.1377 77.457 9.1377Q78.0381 9.1377 78.3662 9.21973L78.6055 6.69727L78.4551 6.66992ZM37.5283 6.75195L40.4814 14.4971L43.127 14.4971L46.0801 6.75195L43.2979 6.75195L41.9238 11.3457Q41.8008 11.7627 41.8008 12.1182L41.7529 12.1182Q41.7529 12.0088 41.7358 11.8823Q41.7188 11.7559 41.6982 11.6431Q41.6777 11.5303 41.6572 11.4482Q41.6367 11.3662 41.6299 11.332L40.3174 6.75195L37.5283 6.75195ZM57.5371 6.75195L54.7207 6.75195L57.7695 14.3877Q57.5439 14.9551 57.3457 15.2046Q57.1475 15.4541 56.8809 15.5908Q56.6143 15.7275 56.2588 15.7275Q55.7939 15.7275 55.4316 15.6455L55.4316 17.7441Q55.9922 17.8604 56.5254 17.8604Q57.9063 17.8604 58.7642 17.2109Q59.6221 16.5615 60.21 14.9893L63.2725 6.75195L60.5449 6.75195L59.1982 11.209Q59.0889 11.5645 59.0342 12.0361L58.9795 12.0361Q58.9453 11.5439 58.8496 11.1953L57.5371 6.75195ZM49.7954 8.73096Q50.1133 8.43359 50.585 8.43359Q51.0977 8.43359 51.4019 8.76855Q51.7061 9.10352 51.7197 9.66406L49.4229 9.66406Q49.4775 9.02832 49.7954 8.73096ZM66.8408 12.1284Q66.5742 11.6055 66.5742 10.6074Q66.5742 9.60938 66.8408 9.10693Q67.1074 8.60449 67.7227 8.60449Q68.3516 8.60449 68.6113 9.11035Q68.8711 9.61621 68.8711 10.6074Q68.8711 11.6055 68.6147 12.1284Q68.3584 12.6514 67.7363 12.6514Q67.1074 12.6514 66.8408 12.1284ZM35.7949 22.0205Q35.5557 22.2305 35.5557 22.6602Q35.5557 23.5 36.5664 23.5Q37.5869 23.5 37.5869 22.6602Q37.5869 22.2402 37.3428 22.0254Q37.0986 21.8105 36.5664 21.8105Q36.0342 21.8105 35.7949 22.0205ZM18.6025 28.5806Q18.9395 28.0654 18.9395 27.4014Q18.9395 26.6787 18.5806 26.2026Q18.2217 25.7266 17.2988 25.3115Q16.3369 24.8721 16.1196 24.7061Q15.9023 24.54 15.9023 24.3301Q15.9023 24.1348 16.0732 24.0029Q16.2441 23.8711 16.6201 23.8711Q17.3477 23.8711 18.3486 24.3301L18.9395 22.8408Q17.7871 22.3281 16.6787 22.3281Q15.4238 22.3281 14.7061 22.8799Q13.9883 23.4316 13.9883 24.418Q13.9883 24.9453 14.1567 25.3311Q14.3252 25.7168 14.6743 26.0146Q15.0234 26.3125 15.7217 26.6299Q16.4932 26.9766 16.6714 27.0889Q16.8496 27.2012 16.9302 27.311Q17.0107 27.4209 17.0107 27.5674Q17.0107 27.8018 16.8105 27.9507Q16.6104 28.0996 16.1807 28.0996Q15.6826 28.0996 15.0869 27.9409Q14.4912 27.7822 13.9395 27.499L13.9395 29.2178Q14.4619 29.4668 14.9453 29.5669Q15.4287 29.667 16.1416 29.667Q16.9961 29.667 17.6309 29.3813Q18.2656 29.0957 18.6025 28.5806ZM23.5635 27.9678Q23.0264 28.1582 22.6406 28.1582Q22.123 28.1582 22.123 27.6211L22.123 25.4678L23.4805 25.4678L23.4805 24.0371L22.123 24.0371L22.123 22.9287L20.873 22.9287L20.3799 24.0908L19.5303 24.6914L19.5303 25.4678L20.1992 25.4678L20.1992 27.748Q20.1992 28.7246 20.624 29.1958Q21.0488 29.667 22.0107 29.667Q22.4795 29.667 22.8286 29.5962Q23.1777 29.5254 23.5635 29.3594L23.5635 27.9678ZM34.7158 23.9785Q34.4912 23.9395 34.2422 23.9395Q33.8076 23.9395 33.3804 24.2104Q32.9531 24.4814 32.7139 24.9209L32.6211 24.9209L32.3232 24.0371L30.9023 24.0371L30.9023 29.5693L32.8115 29.5693L32.8115 26.8496Q32.8115 26.3125 33.0947 26.0269Q33.3779 25.7412 34.0029 25.7412Q34.418 25.7412 34.6523 25.7998L34.8232 23.998L34.7158 23.9785ZM39.3716 28.9321Q40.1357 29.667 41.5176 29.667Q42.1816 29.667 42.6602 29.5791Q43.1387 29.4912 43.5879 29.2617L43.5879 27.8896Q43.0947 28.1191 42.6724 28.2144Q42.25 28.3096 41.7471 28.3096Q41.1953 28.3096 40.8755 28.0459Q40.5557 27.7822 40.5361 27.3184L43.9492 27.3184L43.9492 26.4688Q43.9492 25.2432 43.2681 24.5913Q42.5869 23.9395 41.3369 23.9395Q40.0234 23.9395 39.3154 24.689Q38.6074 25.4385 38.6074 26.8398Q38.6074 28.1973 39.3716 28.9321ZM48.6953 29.2129Q49.3008 28.7588 49.3008 27.8701Q49.3008 27.4258 49.1665 27.1157Q49.0322 26.8057 48.7466 26.5762Q48.4609 26.3467 47.8799 26.1074Q47.0986 25.7998 46.9351 25.6997Q46.7715 25.5996 46.7715 25.458Q46.7715 25.2285 47.2402 25.2285Q47.5088 25.2285 47.9336 25.3481Q48.3584 25.4678 48.7393 25.6387L49.2568 24.4082Q48.7393 24.1787 48.2583 24.0591Q47.7773 23.9395 47.2305 23.9395Q46.1416 23.9395 45.5459 24.3691Q44.9502 24.7988 44.9502 25.5703Q44.9502 26.1807 45.2529 26.5786Q45.5557 26.9766 46.3174 27.2891Q47.1523 27.6211 47.3257 27.7358Q47.499 27.8506 47.499 27.9971Q47.499 28.2803 46.8789 28.2803Q46.4639 28.2803 45.9341 28.1533Q45.4043 28.0264 44.96 27.8311L44.96 29.3594Q45.4336 29.5352 45.8877 29.6011Q46.3418 29.667 46.957 29.667Q48.0898 29.667 48.6953 29.2129ZM35.6045 29.5693L37.5137 29.5693L37.5137 24.0371L35.6045 24.0371L35.6045 29.5693ZM40.8413 25.4507Q41.0684 25.2383 41.4053 25.2383Q41.7715 25.2383 41.9888 25.4775Q42.2061 25.7168 42.2158 26.1172L40.5752 26.1172Q40.6143 25.6631 40.8413 25.4507Z" id="Mask-Difference" fill="#FF5722" fill-rule="evenodd" stroke="none" />
  </g>
</svg>