<?xml version="1.0" encoding="utf-8"?>
<svg width="727px" height="727px" viewBox="0 0 727 727" version="1.1" xmlns:xlink="http://www.w3.org/1999/xlink" xmlns="http://www.w3.org/2000/svg">
  <defs>
    <path d="M0 0L727 0L727 727L0 727L0 0Z" id="path_1" />
    <clipPath id="clip_1">
      <use xlink:href="#path_1" />
    </clipPath>
  </defs>
  <g id="icon" clip-path="url(#clip_1)">
    <path d="M0 0L727 0L727 727L0 727L0 0Z" id="icon" fill="none" fill-rule="evenodd" stroke="none" />
    <path d="M727 363.5C727 565.144 564.256 728.608 363.5 728.608C162.745 728.608 0 565.144 0 363.5C3.05428e-05 161.856 162.745 -1.60849 363.5 -1.60849C564.256 -1.60849 727 161.856 727 363.5" id="Shape" fill="#54E700" fill-rule="evenodd" stroke="none" />
    <path d="M589.287 363.5C589.287 489.639 487.482 591.894 361.899 591.894C236.316 591.894 134.511 489.639 134.511 363.5C134.511 237.362 236.316 135.106 361.899 135.106C487.264 135.635 588.761 237.581 589.287 363.5" id="Shape" fill="#F6F500" fill-rule="evenodd" stroke="none" />
    <path d="M499.612 363.5C499.088 439.676 437.736 501.298 361.897 501.823C285.84 501.823 224.183 439.894 224.183 363.5C224.183 287.107 285.84 225.177 361.897 225.177C437.736 225.703 499.087 287.326 499.611 363.5" id="Shape" fill="#FF0000" fill-rule="evenodd" stroke="none" />
  </g>
</svg>